<?xml version="1.0" encoding="utf-8"?>
<!-- Generator: Adobe Illustrator 25.0.1, SVG Export Plug-In . SVG Version: 6.00 Build 0)  -->
<svg version="1.1" id="Capa_1" xmlns="http://www.w3.org/2000/svg" xmlns:xlink="http://www.w3.org/1999/xlink" x="0px" y="0px"
	 viewBox="0 0 420.3 420.3" style="enable-background:new 0 0 420.3 420.3;" xml:space="preserve">
<style type="text/css">
	.st0{font-family:'Garamond-Bold';}
	.st1{font-size:329.9749px;}
</style>
<g>
	<g>
		<path d="M376.9,403.2h-35.2v-24c0-4.4-3.6-8-8-8h-247c-4.4,0-8,3.6-8,8v24H43.5c-4.4,0-8,3.6-8,8s3.6,8,8,8h333.4c4.4,0,8-3.6,8-8
			S381.3,403.2,376.9,403.2z M325.7,403.2h-231v-16h231L325.7,403.2L325.7,403.2z"/>
	</g>
</g>
<text transform="matrix(0.9718 0 0 1 135.2026 371.153)" class="st0 st1">S</text>
<g>
	<g>
		<g>
			<path d="M402.6,31.8c-0.1-0.1-0.3-0.2-0.4-0.3c-20.5-16.1-50.2-12.6-66.3,7.9c0,0,0,0,0,0.1c-2.7,3.5-2.2,8.5,1.3,11.2l61.4,48.8
				c1.4,1.1,3.2,1.8,5,1.8h0.9c2.1-0.2,4-1.3,5.4-3C426.2,77.9,423,48.2,402.6,31.8z M401.6,80.9L401.6,80.9l-47.4-37.5
				c11.4-8.2,26.9-8,38.1,0.6C403.4,52.8,407.2,67.9,401.6,80.9z"/>
		</g>
	</g>
	<g>
		<g>
			<path d="M375.7,90.9c-3-1.5-6.6-0.2-8.1,2.8c0,0.1-0.1,0.1-0.1,0.2l-48.6,103.8c-1.4,3-0.1,6.6,2.9,8.1c3,1.5,6.6,0.3,8.1-2.7
				c0-0.1,0.1-0.1,0.1-0.2L378.4,99C379.9,96,378.7,92.4,375.7,90.9z"/>
		</g>
	</g>
	<g>
		<g>
			<path d="M347.6,72.1c-1.9-2.8-5.6-3.5-8.4-1.7c-0.1,0-0.1,0.1-0.2,0.1l-94,65.5c-2.7,1.9-3.4,5.7-1.5,8.4
				c1.8,2.8,5.6,3.6,8.4,1.7c0.1,0,0.1-0.1,0.2-0.1L346,80.5C348.7,78.7,349.5,74.9,347.6,72.1z"/>
		</g>
	</g>
</g>
<g>
	<g>
		<g>
			<path d="M15.3,98.3c1.3,1.7,3.3,2.7,5.4,3h0.9c1.8,0,3.6-0.6,5-1.8L88,50.7c3.4-2.7,4-7.7,1.3-11.2c0,0,0,0,0-0.1
				c-16.1-20.5-45.8-24.1-66.3-7.9c-0.1,0.1-0.3,0.2-0.4,0.3C2.2,48.2-1,77.9,15.3,98.3z M32.8,44c11.2-8.5,26.6-8.8,38.1-0.6
				L23.6,80.9h-0.1C17.9,67.9,21.7,52.8,32.8,44z"/>
		</g>
	</g>
	<g>
		<g>
			<path d="M46.7,99l48.4,103.8c0,0.1,0.1,0.1,0.1,0.2c1.5,3,5.1,4.2,8.1,2.7c3-1.4,4.3-5,2.9-8.1L57.7,93.8c0-0.1-0.1-0.1-0.1-0.2
				c-1.5-3-5.1-4.2-8.1-2.8C46.5,92.4,45.2,96,46.7,99z"/>
		</g>
	</g>
	<g>
		<g>
			<path d="M79.2,80.5l93.8,65.6c0.1,0,0.1,0.1,0.2,0.1c2.8,1.8,6.5,1.1,8.4-1.7c1.9-2.7,1.2-6.5-1.5-8.4l-94-65.5
				c-0.1,0-0.1-0.1-0.2-0.1c-2.8-1.9-6.5-1.1-8.4,1.7C75.6,74.9,76.4,78.7,79.2,80.5z"/>
		</g>
	</g>
</g>
</svg>
